<svg id="Capa_1" enable-background="new 0 0 512 512" height="512" viewBox="0 0 512 512" width="512" xmlns="http://www.w3.org/2000/svg"><g><g id="Page-1_56_"><g id="_x30_57---Intake-and-Outlet-AC"><path id="Shape_402_" d="m137.143 247.397v17.746h42.469c-12.168-9.855-26.907-16.014-42.469-17.746z"/><path id="Shape_401_" d="m118.857 265.143v-17.746c-15.562 1.732-30.301 7.891-42.469 17.746z"/><path id="Shape_400_" d="m50.514 301.714h68.343v-18.286h-59.227c-3.793 5.69-6.856 11.833-9.116 18.286z"/><path id="Shape_399_" d="m137.143 338.286h72.603c.72-6.074.72-12.212 0-18.286h-72.603z"/><path id="Shape_398_" d="m137.143 374.857h59.227c3.803-5.688 6.874-11.831 9.143-18.286h-68.37z"/><path id="Shape_397_" d="m137.143 410.889c15.562-1.732 30.301-7.891 42.469-17.746h-42.469z"/><path id="Shape_396_" d="m45.714 329.143c.009 3.055.189 6.108.539 9.143h72.603v-18.286h-72.602c-.351 3.035-.531 6.088-.54 9.143z"/><path id="Shape_395_" d="m73.143 502.857c5.049 0 9.143-4.093 9.143-9.143v-18.286h-54.857v18.286c0 5.049 4.093 9.143 9.143 9.143z"/><path id="Shape_394_" d="m137.143 283.429v18.286h68.343c-2.268-6.455-5.34-12.598-9.143-18.286z"/><path id="Shape_393_" d="m59.63 374.857h59.227v-18.286h-68.343c2.26 6.454 5.323 12.597 9.116 18.286z"/><path id="Shape_392_" d="m475.429 502.857c5.049 0 9.143-4.093 9.143-9.143v-18.286h-54.857v18.286c0 5.049 4.093 9.143 9.143 9.143z"/><path id="Shape_391_" d="m118.857 410.889v-17.746h-42.468c12.167 9.855 26.906 16.014 42.468 17.746z"/><path id="Shape_390_" d="m393.143 247.397v17.746h42.469c-12.168-9.855-26.907-16.014-42.469-17.746z"/><path id="Shape_389_" d="m393.143 410.889c15.562-1.732 30.301-7.891 42.469-17.746h-42.469z"/><path id="Shape_388_" d="m374.857 265.143v-17.746c-15.562 1.732-30.301 7.891-42.469 17.746z"/><path id="Shape_387_" d="m393.143 338.286h72.603c.72-6.074.72-12.212 0-18.286h-72.603z"/><path id="Shape_386_" d="m393.143 374.857h59.227c3.803-5.688 6.874-11.831 9.143-18.286h-68.37z"/><path id="Shape_385_" d="m374.857 410.889v-17.746h-42.469c12.168 9.855 26.907 16.014 42.469 17.746z"/><path id="Shape_384_" d="m306.514 301.714h68.343v-18.286h-59.227c-3.793 5.69-6.856 11.833-9.116 18.286z"/><path id="Shape_383_" d="m393.143 283.429v18.286h68.343c-2.268-6.455-5.34-12.598-9.143-18.286z"/><path id="Shape_382_" d="m512 219.429c-.03-10.086-8.199-18.256-18.286-18.286h-65.646c-3.865 10.932-14.187 18.253-25.783 18.286h-36.571c-11.603-.008-21.938-7.338-25.783-18.286h-183.954l-6.766 8.137c-5.121 6.481-12.952 10.228-21.211 10.149-8.481.036-16.494-3.886-21.669-10.606l-6.4-7.68h-81.645c-10.087.03-18.256 8.199-18.286 18.286v219.429c.03 10.086 8.199 18.256 18.286 18.286h475.429c10.086-.03 18.256-8.199 18.286-18.286v-219.429zm-384 210.285c-55.544 0-100.571-45.027-100.571-100.571s45.027-100.572 100.571-100.572 100.571 45.027 100.571 100.571c-.035 55.53-45.042 100.537-100.571 100.572zm146.286-173.714h-36.571c-5.049 0-9.143-4.093-9.143-9.143 0-5.049 4.093-9.143 9.143-9.143h36.571c5.049 0 9.143 4.093 9.143 9.143s-4.094 9.143-9.143 9.143zm109.714 173.714c-55.544 0-100.571-45.027-100.571-100.571s45.027-100.572 100.571-100.572 100.571 45.027 100.571 100.571c-.035 55.53-45.042 100.537-100.571 100.572z"/><path id="Shape_381_" d="m315.63 374.857h59.227v-18.286h-68.343c2.26 6.454 5.323 12.597 9.116 18.286z"/><path id="Shape_380_" d="m301.714 329.143c.009 3.055.189 6.108.539 9.143h72.603v-18.286h-72.603c-.35 3.035-.53 6.088-.539 9.143z"/><path id="Shape_379_" d="m146.286 9.143h-36.571c-5.049 0-9.143 4.093-9.143 9.143v109.714h-18.286c-3.492.001-6.678 1.991-8.211 5.128s-1.146 6.873.997 9.629l45.714 54.857c1.732 2.225 4.394 3.526 7.214 3.526s5.481-1.301 7.214-3.526l45.714-54.857c2.144-2.756 2.531-6.492.997-9.629-1.533-3.137-4.72-5.126-8.211-5.128h-18.286v-109.714c.001-5.05-4.093-9.143-9.142-9.143z"/><path id="Shape_378_" d="m365.714 201.143h36.571c5.049 0 9.143-4.093 9.143-9.143v-109.714h18.286c3.492-.001 6.678-1.991 8.211-5.127 1.533-3.137 1.146-6.873-.997-9.629l-45.714-54.857c-1.732-2.225-4.394-3.526-7.214-3.526s-5.481 1.301-7.214 3.526l-45.714 54.857c-2.144 2.756-2.531 6.492-.997 9.629 1.533 3.137 4.72 5.126 8.211 5.127h18.286v109.714c-.001 5.049 4.093 9.143 9.142 9.143z"/></g></g></g></svg>