<svg id="Capa_1" enable-background="new 0 0 512 512" height="512" viewBox="0 0 512 512" width="512" xmlns="http://www.w3.org/2000/svg"><g><path d="m400.927 20.429c-2.278-5.695-7.793-9.429-13.927-9.429h-120c-6.134 0-11.649 3.734-13.927 9.429l-16.228 40.571h180.311z"/><path d="m370 316c0-34.711-9.617-67.214-26.314-95h-16.686c-17.415 0-33.748 4.715-47.797 12.929 19.169 21.974 30.797 50.689 30.797 82.071 0 68.925-56.075 125-125 125s-125-56.075-125-125c0-56.184 37.262-103.825 88.37-119.52 17.074-25.436 39.435-47.033 65.492-63.224-9.408-1.48-19.046-2.256-28.862-2.256-102.01 0-185 82.99-185 185s82.99 185 185 185 185-82.99 185-185z"/><path d="m362.911 134.51 49.726-43.51h-171.274l49.726 43.51c-84.88 16.766-149.089 91.765-149.089 181.49 0 34.711 9.617 67.214 26.314 95h16.686c17.415 0 33.748-4.715 47.797-12.929-19.169-21.974-30.797-50.689-30.797-82.071 0-68.925 56.075-125 125-125s125 56.075 125 125c0 56.184-37.262 103.825-88.37 119.52-17.074 25.436-39.435 47.033-65.492 63.224 9.408 1.48 19.046 2.256 28.862 2.256 102.01 0 185-82.99 185-185 0-89.725-64.209-164.724-149.089-181.49z"/></g></svg>