<?xml version="1.0" encoding="UTF-8"?>
<svg xmlns="http://www.w3.org/2000/svg" id="Icons" viewBox="0 0 64 64" width="512" height="512"><g id="Glyph_Black" data-name="Glyph Black"><g id="Telemedicine"><path d="M39,39a1,1,0,0,1-.778-.371,6.5,6.5,0,0,0-10.446,0,1,1,0,0,1-1.554-1.258,8.5,8.5,0,0,1,13.554,0A1,1,0,0,1,39,39Z"/><path d="M36.5,42a1,1,0,0,1-.813-.415A3.38,3.38,0,0,0,33,40a3.38,3.38,0,0,0-2.688,1.585,1,1,0,0,1-1.624-1.17A5.39,5.39,0,0,1,33,38a5.39,5.39,0,0,1,4.312,2.415A1,1,0,0,1,36.5,42Z"/><path d="M33,44a1,1,0,0,1-.009-2H33a1,1,0,0,1,0,2Z"/><path d="M6.028,60.586l2-14.009A3.017,3.017,0,0,1,11,44H27.475A9.006,9.006,0,0,0,19,38H11a9.01,9.01,0,0,0-9,9v8a7,7,0,0,0,4.026,6.328A3.07,3.07,0,0,1,6.028,60.586Z"/><path d="M15,36a6.006,6.006,0,0,0,6-6V28A6,6,0,0,0,9,28v2A6.006,6.006,0,0,0,15,36Z"/><path d="M33.76,46.34A1.037,1.037,0,0,0,33,46H11a1,1,0,0,0-.99.86l-2,14a1.006,1.006,0,0,0,.23.8A1.037,1.037,0,0,0,9,62H31a1,1,0,0,0,.99-.86l2-14A1.006,1.006,0,0,0,33.76,46.34ZM21,57a3,3,0,1,1,3-3A3.009,3.009,0,0,1,21,57Z"/><path d="M37,56.47a1,1,0,0,1-.206-1.978,22.93,22.93,0,0,0,3.664-1.1,1,1,0,1,1,.736,1.859,24.853,24.853,0,0,1-3.986,1.2A1.064,1.064,0,0,1,37,56.47Z"/><path d="M44.405,53.544a1,1,0,0,1-.518-1.856,22.862,22.862,0,0,0,3.1-2.247,1,1,0,0,1,1.3,1.516A25.073,25.073,0,0,1,44.922,53.4,1,1,0,0,1,44.405,53.544Z"/><path d="M50.441,48.354a1,1,0,0,1-.767-1.641,23.006,23.006,0,0,0,2.2-3.133A1,1,0,0,1,53.6,44.587a25.1,25.1,0,0,1-2.39,3.407A1,1,0,0,1,50.441,48.354Z"/><path d="M54.457,41.479a1,1,0,0,1-.936-1.354,22.859,22.859,0,0,0,1.049-3.681,1,1,0,1,1,1.963.386,25.055,25.055,0,0,1-1.14,4A1,1,0,0,1,54.457,41.479Z"/><path d="M11.839,20a.989.989,0,0,1-.539-.159,1,1,0,0,1-.3-1.382,25.018,25.018,0,0,1,2.535-3.3A1,1,0,1,1,15.012,16.5a23,23,0,0,0-2.33,3.038A1,1,0,0,1,11.839,20Z"/><path d="M17.2,14.11a1,1,0,0,1-.619-1.786,25.062,25.062,0,0,1,3.476-2.288,1,1,0,0,1,.957,1.756,23,23,0,0,0-3.2,2.105A.994.994,0,0,1,17.2,14.11Z"/><path d="M24.19,10.306a1,1,0,0,1-.324-1.947,25.216,25.216,0,0,1,2.927-.808,1,1,0,1,1,.414,1.957,23.07,23.07,0,0,0-2.692.743A1,1,0,0,1,24.19,10.306Z"/><path d="M53,2H39a1,1,0,0,0-1,1V29a1,1,0,0,0,1,1H53a1,1,0,0,0,1-1V3A1,1,0,0,0,53,2ZM44,26H43a1,1,0,0,1,0-2h1a1,1,0,0,1,0,2Zm0-4H43a1,1,0,0,1,0-2h1a1,1,0,0,1,0,2Zm0-4H43a1,1,0,0,1,0-2h1a1,1,0,0,1,0,2Zm2-5a1,1,0,0,1-1-1V11H44a1,1,0,0,1,0-2h1V8a1,1,0,0,1,2,0V9h1a1,1,0,0,1,0,2H47v1A1,1,0,0,1,46,13Zm3,13H48a1,1,0,0,1,0-2h1a1,1,0,0,1,0,2Zm0-4H48a1,1,0,0,1,0-2h1a1,1,0,0,1,0,2Zm0-4H48a1,1,0,0,1,0-2h1a1,1,0,0,1,0,2Z"/><path d="M61,12H53a1,1,0,0,0-1,1V29a1,1,0,0,0,1,1h8a1,1,0,0,0,1-1V13A1,1,0,0,0,61,12ZM60,26H54V24h6Zm0-4H54V20h6Zm0-4H54V16h6Z"/><path d="M39,12H31a1,1,0,0,0-1,1V29a1,1,0,0,0,1,1h8a1,1,0,0,0,1-1V13A1,1,0,0,0,39,12ZM38,26H32V24h6Zm0-4H32V20h6Zm0-4H32V16h6Z"/></g></g></svg>
