<svg height="479pt" viewBox="0 -28 479.954 479" width="479pt" xmlns="http://www.w3.org/2000/svg"><path d="m296.570312 190.871094c2.519532 2.417968 6.433594 2.609375 9.175782.449218l54.667968-43.0625 70.273438 54.609376-37.195312 2.65625c-3.765626.265624-6.640626 3.460937-6.507813 7.230468.132813 3.769532 3.226563 6.757813 7 6.753906.164063 0 .335937-.003906.503906-.019531l55.351563-3.953125c1.855468-.132812 3.585937-1 4.800781-2.410156 1.214844-1.414062 1.820313-3.25 1.675781-5.109375l-3.953125-51.394531c-.292969-3.851563-3.660156-6.738282-7.515625-6.441406-3.851562.296874-6.738281 3.660156-6.441406 7.515624l2.734375 35.5625-76.457031-59.421874c-2.539063-1.972657-6.101563-1.960938-8.628906.027343l-54.1875 42.695313-52.265626-50.148438c-1.796874-1.78125-4.414062-2.457031-6.84375-1.765625-2.433593.691407-4.304687 2.640625-4.894531 5.101563-.589843 2.457031.191407 5.042968 2.042969 6.765625zm0 0"/><path d="m128.691406 167.535156c46.132813 0 83.53125-37.394531 83.53125-83.527344 0-46.132812-37.398437-83.53125-83.53125-83.53125-46.132812 0-83.53125 37.398438-83.53125 83.53125.054688 46.109376 37.421875 83.476563 83.53125 83.527344zm0-77.089844c-15.34375 0-28.355468-11.273437-30.539062-26.460937s7.125-29.671875 21.847656-33.996094v-8.949219c0-3.867187 3.132812-7 7-7s7 3.132813 7 7v8.160157c14.757812 2.597656 25.527344 15.40625 25.546875 30.390625 0 3.867187-3.132813 7-7 7-3.863281 0-7-3.132813-7-7 0-9.308594-7.542969-16.855469-16.855469-16.855469-9.308594 0-16.855468 7.542969-16.855468 16.855469 0 9.308594 7.546874 16.855468 16.855468 16.855468 15.8125 0 29.066406 11.957032 30.691406 27.683594 1.625 15.730469-8.902343 30.140625-24.382812 33.375v7.535156c0 3.867188-3.132812 7-7 7s-7-3.132812-7-7v-7.855468c-13.625-3.527344-23.144531-15.8125-23.164062-29.882813 0-3.867187 3.136718-7 7-7 3.867187 0 7 3.132813 7 7 .015624 8.738281 6.695312 16.019531 15.402343 16.78125.25-.027343.503907-.042969.757813-.042969.367187.003907.738281.039063 1.101562.101563 9.238282-.203125 16.59375-7.808594 16.480469-17.050781-.113281-9.242188-7.652344-16.667969-16.894531-16.640625zm0 0"/><path d="m472.953125 410.257812h-52.953125v-88h-64v88h-79v-160h-63v160h-80v-199h-63v199h-57v-368.226562c0-3.867188-3.132812-7-7-7s-7 3.132812-7 7v374.570312c0 3.867188 3.179688 7.65625 7.046875 7.65625h465.90625c3.867187 0 7-3.132812 7-7 0-3.867187-3.132813-7-7-7zm0 0"/></svg>