<svg height="512" viewBox="0 0 56 56" width="512" xmlns="http://www.w3.org/2000/svg"><g id="Page-1" fill="none" fill-rule="evenodd"><g id="051---Open-Source" fill="currentColor" fill-rule="nonzero"><circle id="Oval" cx="43" cy="46" r="1"/><path id="Shape" d="m52 3c-.0049422-1.6548028-1.3451972-2.9950578-3-3h-46c-1.6548028.0049422-2.9950578 1.3451972-3 3v3h52zm-49 1c-.55228475 0-1-.44771525-1-1s.44771525-1 1-1 1 .44771525 1 1-.44771525 1-1 1zm4 0c-.55228475 0-1-.44771525-1-1s.44771525-1 1-1 1 .44771525 1 1-.44771525 1-1 1zm4 0c-.5522847 0-1-.44771525-1-1s.4477153-1 1-1 1 .44771525 1 1-.4477153 1-1 1zm21 0h-12c-.5522847 0-1-.44771525-1-1s.4477153-1 1-1h12c.5522847 0 1 .44771525 1 1s-.4477153 1-1 1z"/><path id="Shape" d="m31.43 33.47c5.0867417-6.2091631 14.1718039-7.2868273 20.57-2.44v-23.03h-52v41c.0049422 1.6548028 1.3451972 2.9950578 3 3h28.03c-4.1848737-5.520443-4.0191997-13.1952899.4-18.53zm.894-20.733c-.2633048-.2415115-.3777635-.6051488-.3002608-.9539332.0775028-.3487844.3351925-.6297272.6760001-.737.3408075-.1072728.712956-.0245784.9762607.2169332l4.68 4.293c.409557.3683031.6434516.8931969.6434516 1.444s-.2338946 1.0756969-.6434516 1.444l-4.681 4.293c-.2633047.2415115-.6354532.324206-.9762607.2169332s-.5984973-.3882156-.676-.737c-.0775028-.3487844.0369559-.7124217.3002607-.9539332l4.681-4.293zm-10.181 8.748 6-10c.2892402-.4622053.8954316-.6075113 1.3627839-.3266637.4673523.2808477.6235797.8843167.3512161 1.3566637l-6 10c-.1806127.3132279-.516242.5045637-.8777878.5004101-.3615459-.0041537-.6926908-.2031497-.8660598-.5204443-.1733689-.3172946-.1619565-.7034632.0298476-1.0099658zm.857 5.515h3c.5522847 0 1 .4477153 1 1s-.4477153 1-1 1h-3c-.5522847 0-1-.4477153-1-1s.4477153-1 1-1zm-9.357-11.444 4.681-4.293c.4070339-.3733445 1.0396555-.3460339 1.413.061s.3460339 1.0396555-.061 1.413l-4.676 4.293 4.681 4.233c.4070338.3733445.4343445 1.0059661.061 1.413-.3733445.4070338-1.0059661.4343445-1.413.061l-4.68-4.293c-.409557-.3683031-.6434516-.8931969-.6434516-1.444s.2338946-1.0756969.6434516-1.444zm-4.643 11.444h10c.5522847 0 1 .4477153 1 1s-.4477153 1-1 1h-10c-.55228475 0-1-.4477153-1-1s.44771525-1 1-1zm0 4h19c.5522847 0 1 .4477153 1 1s-.4477153 1-1 1h-19c-.55228475 0-1-.4477153-1-1s.44771525-1 1-1zm-4 18c-.55228475 0-1-.4477153-1-1s.44771525-1 1-1 1 .4477153 1 1-.44771525 1-1 1zm0-4c-.55228475 0-1-.4477153-1-1s.44771525-1 1-1 1 .4477153 1 1-.44771525 1-1 1zm0-4c-.55228475 0-1-.4477153-1-1s.44771525-1 1-1 1 .4477153 1 1-.44771525 1-1 1zm0-4c-.55228475 0-1-.4477153-1-1s.44771525-1 1-1 1 .4477153 1 1-.44771525 1-1 1zm0-4c-.55228475 0-1-.4477153-1-1s.44771525-1 1-1 1 .4477153 1 1-.44771525 1-1 1zm0-4c-.55228475 0-1-.4477153-1-1s.44771525-1 1-1 1 .4477153 1 1-.44771525 1-1 1zm9 20h-5c-.55228475 0-1-.4477153-1-1s.44771525-1 1-1h5c.5522847 0 1 .4477153 1 1s-.4477153 1-1 1zm7-4h-12c-.55228475 0-1-.4477153-1-1s.44771525-1 1-1h12c.5522847 0 1 .4477153 1 1s-.4477153 1-1 1zm-13-5c0-.5522847.44771525-1 1-1h6c.5522847 0 1 .4477153 1 1s-.4477153 1-1 1h-6c-.55228475 0-1-.4477153-1-1zm14 1h-3c-.5522847 0-1-.4477153-1-1s.4477153-1 1-1h3c.5522847 0 1 .4477153 1 1s-.4477153 1-1 1zm2-4h-15c-.55228475 0-1-.4477153-1-1s.44771525-1 1-1h15c.5522847 0 1 .4477153 1 1s-.4477153 1-1 1z"/><path id="Shape" d="m47 41h-8c-.5522847 0-1 .4477153-1 1v8c0 .5522847.4477153 1 1 1h8c.5522847 0 1-.4477153 1-1v-8c0-.5522847-.4477153-1-1-1zm-4 8c-1.6568542 0-3-1.3431458-3-3s1.3431458-3 3-3 3 1.3431458 3 3c-.0049422 1.6548028-1.3451972 2.9950578-3 3z"/><path id="Shape" d="m43.06 30h-.06c-7.1572569.016555-12.9482688 5.8276941-12.9399913 12.9849653.0082775 7.1572713 5.8127153 12.955 12.9699913 12.955s12.9617138-5.7977287 12.9699913-12.955c.0082775-7.1572712-5.7827344-12.9684103-12.9399913-12.9849653zm6.94 20c-.0049422 1.6548028-1.3451972 2.9950578-3 3h-8c-1.6548028-.0049422-2.9950578-1.3451972-3-3v-8c.0049422-1.6548028 1.3451972-2.9950578 3-3v-3c0-2.209139 1.790861-4 4-4s4 1.790861 4 4c0 .5522847-.4477153 1-1 1s-1-.4477153-1-1c0-1.1045695-.8954305-2-2-2s-2 .8954305-2 2v3h6c1.6548028.0049422 2.9950578 1.3451972 3 3z"/></g></g></svg>