<?xml version="1.0" encoding="iso-8859-1"?>
<!-- Generator: Adobe Illustrator 19.0.0, SVG Export Plug-In . SVG Version: 6.00 Build 0)  -->
<svg xmlns="http://www.w3.org/2000/svg" xmlns:xlink="http://www.w3.org/1999/xlink" version="1.1" id="Layer_1" x="0px" y="0px" viewBox="0 0 495.33 495.33" style="enable-background:new 0 0 495.33 495.33;" xml:space="preserve" width="512" height="512">
<g>
	<path d="M366.645,29v34.66c0,8.284-6.716,15-15,15h-204.55c-8.29,0-15-6.72-15-15V29h-54.61c-8.284,0-15,6.716-15,15v436.33   c0,8.284,6.716,15,15,15h340.36c8.284,0,15-6.716,15-15V44c0-8.284-6.716-15-15-15H366.645z M310.835,385.71l-68.31,68.31   c-5.855,5.856-15.343,5.877-21.22,0l-34.15-34.16c-5.86-5.85-5.86-15.35,0-21.21c5.85-5.86,15.35-5.86,21.21,0l23.55,23.55   l57.71-57.71c5.86-5.85,15.36-5.85,21.21,0C316.695,370.35,316.695,379.85,310.835,385.71z M389.785,338.29h-281.58   c-8.29,0-15-6.71-15-15c0-8.28,6.71-15,15-15h281.58c8.29,0,15,6.72,15,15C404.785,331.58,398.075,338.29,389.785,338.29z    M96.705,271.47V206c0-6.35,5.15-11.5,11.5-11.5h23.23c17.27,0,31.32,14.05,31.32,31.32s-14.05,31.32-31.32,31.32h-11.73v14.33   c0,6.35-5.15,11.5-11.5,11.5S96.705,277.82,96.705,271.47z M195.335,259.74v11.729c0,6.35-5.15,11.5-11.5,11.5   c-6.35,0-11.5-5.15-11.5-11.5v-43.05c0-18.7,15.22-33.92,33.92-33.92c18.71,0,33.93,15.22,33.93,33.92v43.05   c0,6.35-5.15,11.5-11.5,11.5c-6.35,0-11.5-5.15-11.5-11.5V259.74H195.335z M294.115,250.24h-10.31   c-15.37,0-27.87-12.51-27.87-27.87c0-15.37,12.5-27.87,27.87-27.87h26.68c6.35,0,11.5,5.15,11.5,11.5s-5.15,11.5-11.5,11.5h-26.68   c-2.69,0-4.87,2.18-4.87,4.87c0,2.68,2.18,4.87,4.87,4.87h10.31c15.37,0,27.87,12.5,27.87,27.86c0,15.37-12.5,27.87-27.87,27.87   h-26.68c-6.35,0-11.5-5.15-11.5-11.5c0-6.35,5.15-11.5,11.5-11.5h26.68c2.69,0,4.87-2.18,4.87-4.87   C298.985,252.42,296.805,250.24,294.115,250.24z M373.415,250.24h-10.31c-15.37,0-27.87-12.51-27.87-27.87   c0-15.37,12.5-27.87,27.87-27.87h26.68c6.35,0,11.5,5.15,11.5,11.5s-5.15,11.5-11.5,11.5h-26.68c-2.69,0-4.87,2.18-4.87,4.87   c0,2.68,2.18,4.87,4.87,4.87h10.31c15.37,0,27.87,12.5,27.87,27.86c0,15.37-12.5,27.87-27.87,27.87h-26.68   c-6.35,0-11.5-5.15-11.5-11.5c0-6.35,5.15-11.5,11.5-11.5h26.68c2.69,0,4.87-2.18,4.87-4.87   C378.285,252.42,376.105,250.24,373.415,250.24z M389.785,174h-281.58c-8.29,0-15-6.72-15-15c0-8.28,6.71-15,15-15h281.58   c8.29,0,15,6.72,15,15C404.785,167.28,398.075,174,389.785,174z"/>
	<path d="M139.755,225.82c0-4.59-3.73-8.32-8.32-8.32h-11.73v16.64h11.73C136.025,234.14,139.755,230.41,139.755,225.82z"/>
	<path d="M217.185,228.42c0-6.02-4.9-10.92-10.93-10.92c-6.02,0-10.92,4.9-10.92,10.92v8.32h21.85V228.42z"/>
	<path d="M331.645,0h-164.55c-2.761,0-5,2.239-5,5v38.66c0,2.761,2.239,5,5,5h164.55c2.761,0,5-2.239,5-5V5   C336.645,2.239,334.406,0,331.645,0z"/>
</g>















</svg>
