<?xml version="1.0"?>
<svg xmlns="http://www.w3.org/2000/svg" id="Layer_1" data-name="Layer 1" viewBox="0 0 64 64" width="512" height="512"><path d="M48,51a1,1,0,0,0,1-1V48a1,1,0,0,0-1-1H47v4Z"/><path d="M43,42v2a1,1,0,0,0,1,1h1V41H44A1,1,0,0,0,43,42Z"/><path d="M46,31A15,15,0,1,0,61,46,15.017,15.017,0,0,0,46,31Zm5,12H49V42a1,1,0,0,0-1-1H47v4h1a3,3,0,0,1,3,3v2a3,3,0,0,1-3,3H47v2H45V53H44a3,3,0,0,1-3-3V49h2v1a1,1,0,0,0,1,1h1V47H44a3,3,0,0,1-3-3V42a3,3,0,0,1,3-3h1V37h2v2h1a3,3,0,0,1,3,3Z"/><path d="M29,19V17h3.949A15,15,0,0,0,19,3.051V7H17V3.051A15,15,0,0,0,3.051,17H7v2H3.051A15,15,0,0,0,17,32.949V29h2v3.949A15,15,0,0,0,32.949,19Zm-10-.7-4.723,7.084-1.664-1.11L17,17.7V9h2Z"/><path d="M54,29.414,45.586,21H51V16a3,3,0,0,0-3-3H35V7H48a9.01,9.01,0,0,1,9,9v5h5.414Z"/><path d="M29,57H16a9.01,9.01,0,0,1-9-9V43H1.586L10,34.586,18.414,43H13v5a3,3,0,0,0,3,3H29Z"/></svg>
