<svg id="Icons" enable-background="new 0 0 30 30" height="512" viewBox="0 0 30 30" width="512" xmlns="http://www.w3.org/2000/svg"><g fill="rgb(0,0,0)"><path d="m20.26709 8.39307-2.69141-2.69141 1.13037-1.70166h4.5879l1.13037 1.70166-2.70118 2.70117 1.41407 1.41406 3.8584-3.85839-2.6294-3.9585h-6.73242l-2.6294 3.9585 3.84864 3.84863z"/><path d="m10 28c1.14795 0 2.25391-.18799 3.2749-.5542 2.17773-.74805 4.03809-2.24121 5.23535-4.19873.97461-1.57178 1.48975-3.38623 1.48975-5.24707 0-1.25049-.23242-2.47119-.69043-3.62793l-1.85937.73633c.36474.92139.5498 1.89404.5498 2.8916 0 1.48828-.41162 2.93799-1.19287 4.19824-.9585 1.56689-2.44336 2.75879-4.19434 3.36035-.81689.29297-1.6958.44141-2.61279.44141-4.41113 0-8-3.58887-8-8s3.58887-8 8-8c1.38721 0 2.74756.35889 3.93311 1.0376l.99414-1.73535c-1.48829-.85205-3.1919-1.30225-4.92725-1.30225-5.51416 0-10 4.48584-10 10s4.48584 10 10 10z"/><path d="m21 10c-.45996 0-.91504.03418-1.3501.10107-2.32959.354-4.39893 1.58398-5.82813 3.4668-1.1748 1.55811-1.82177 3.48731-1.82177 5.43213 0 1.42725.32568 2.79102.96875 4.05371l1.78223-.90723c-.49805-.979-.75098-2.03759-.75098-3.14648 0-1.53516.49072-2.99707 1.4165-4.22559 1.11133-1.46338 2.72119-2.4209 4.53564-2.69629.33692-.05175.68946-.07812 1.04786-.07812 3.85986 0 7 3.14014 7 7s-3.14014 7-7 7c-.79492 0-1.55615-.12842-2.26318-.38135l-.67383 1.88281c.92383.33106 1.91162.49854 2.93701.49854 4.9624 0 9-4.0376 9-9s-4.0376-9-9-9z"/></g></svg>